<?xml version="1.0" encoding="utf-8"?>
<!-- Generator: Adobe Illustrator 19.2.1, SVG Export Plug-In . SVG Version: 6.00 Build 0)  -->
<!DOCTYPE svg PUBLIC "-//W3C//DTD SVG 1.1//EN" "http://www.w3.org/Graphics/SVG/1.1/DTD/svg11.dtd">
<svg version="1.1" id="Layer_1" xmlns="http://www.w3.org/2000/svg" xmlns:xlink="http://www.w3.org/1999/xlink" x="0px" y="0px"
	 viewBox="0 0 117 120" style="enable-background:new 0 0 117 120;" xml:space="preserve">
<style type="text/css">
	.st0{fill:#595959;}
</style>
<path class="st0" d="M87.5,79.3v12.9c0,3.4,5.3,3.4,5.3,0V79.3C92.8,75.9,87.5,75.9,87.5,79.3z M112.2,75.7l0.3,0.3c1,1,2.7,1,3.7,0
	c1-1,1-2.7,0-3.7c-1.5-1.5-2.9-2.9-4.4-4.4c-1-1-2.7-1-3.7,0s-1,2.7,0,3.7l0.3,0.3c-0.4,0.4-0.8,0.8-1.2,1.2
	c-0.9-0.8-1.9-1.5-2.9-2.1V32.6c0-4-1.7-7.4-4.9-9.9c-3-2.3-6.9-2-10.5-1.9V5.9C89,2.6,86.3,0.2,83,0c-1.3-0.1-2.5,0-3.8,0
	c-1.5,0-3-0.1-4.5,0.2c-2.6,0.6-4.4,3.2-4.4,5.8v14.8H34.2V5.9c0-3.3-2.7-5.8-5.9-5.9C27,0,25.7,0,24.4,0c-1.5,0-3-0.1-4.5,0.2
	c-2.6,0.6-4.4,3.2-4.4,5.8v14.8c-3.5,0-7.1-0.3-10.2,1.6C1.9,24.6,0,28.6,0,32.6v67.8c0,5.3,3.7,10.5,9.1,11.4
	c1.1,0.2,2.2,0.2,3.4,0.2h58.6c4.8,4.9,11.4,7.8,18.5,8.1c7.1,0.2,14.1-2.6,19.3-7.5c5.1-4.9,8-11.9,8-18.9c0-6.1-2.2-11.9-5.9-16.5
	L112.2,75.7z M75.8,5.6c-0.1,0.2,0.1-0.1,0.2-0.2c0,0.1,0.5-0.2,0.1-0.1c0.1,0,0.2-0.1,0.3-0.1c0,0-0.1,0.1,0.1,0.1h6.4
	c0.5,0,0.8,0.3,0.8,0.8v25.3c0-0.1-0.1,0.4,0,0.2l0,0c0,0.1,0,0.1,0,0.1c0,0-0.1,0.1-0.2,0.2c-0.1,0.1-0.1,0.1-0.1,0.2
	c0,0,0,0-0.2,0.1c0.3-0.2-0.5,0-0.1,0c-0.4,0-0.9,0-1.3,0h-5.4c0,0-0.2,0,0.1,0c-0.2,0-0.2,0-0.2,0c0,0-0.1-0.1-0.2-0.1
	c0.2,0.1-0.1-0.1-0.2-0.2c0.1,0-0.2-0.5-0.1-0.1c0-0.1-0.1-0.2-0.1-0.3c0,0.1,0.1,0.2,0.1,0.1V6.1C75.7,5.7,75.6,6,75.8,5.6z
	 M21,5.6c-0.1,0.2,0.1-0.1,0.2-0.2c0,0.1,0.5-0.2,0.1-0.1c0.1,0,0.2-0.1,0.3-0.1c0,0-0.1,0.1,0.1,0.1h6.4c0.5,0,0.8,0.3,0.8,0.8
	v25.3c0-0.1-0.1,0.4,0,0.2v0c0,0.1,0,0.1,0,0.1c0,0-0.1,0.1-0.2,0.2c-0.1,0.1-0.1,0.1-0.1,0.2c0,0,0,0-0.2,0.1c0.3-0.2-0.5,0-0.1,0
	c-0.4,0-0.9,0-1.3,0h-5.4c0,0-0.2,0,0.1,0c-0.2,0-0.2,0-0.2,0c0,0-0.1-0.1-0.2-0.1c0.2,0.1-0.1-0.1-0.2-0.2c0.1,0-0.2-0.5-0.1-0.1
	c0-0.1-0.1-0.2-0.1-0.3c0,0.1,0.1,0.2,0.1,0.1V6.1C20.9,5.7,20.8,6,21,5.6z M11,106.7c-0.9,0-1.2-0.1-2.1-0.4
	c0.4,0.1-0.4-0.2-0.4-0.2c-0.2-0.1-0.5-0.3-0.7-0.4c-0.1,0-0.1-0.1-0.1-0.1c0,0-0.1-0.1-0.2-0.2c-0.3-0.2-0.5-0.5-0.7-0.8
	c0.1,0.1-0.3-0.5-0.3-0.4c-0.2-0.2-0.3-0.5-0.4-0.7c-0.2-0.3-0.3-0.7-0.5-1.3c-0.2-0.7-0.2-1-0.2-1.8V32.5c0-1.2,0.3-2.4,0.8-3.4
	c0.3-0.5,0.6-0.9,0.7-1.1c0.4-0.4,0.7-0.7,0.9-0.9c0.2-0.2,0.5-0.3,0.7-0.4c0,0,0.5-0.2,0.5-0.2c0.2-0.1,0.5-0.2,0.7-0.2
	c0.2,0,0.4-0.1,0.6-0.1c-0.2,0-0.2,0,0.2,0c0.8-0.1,1.5,0,2.3,0h2.9v5.2c0,3.4,2.5,6,5.9,6.2c1.9,0.1,3.8,0,5.7,0
	c1.2,0,2.3-0.1,3.4-0.6c2-0.9,3.2-2.8,3.4-4.9c0-0.1,0-0.3,0-0.4V26h36.2v5.2c0,3.4,2.5,6,5.9,6.2c1.9,0.1,3.8,0,5.7,0
	c1.2,0,2.3-0.1,3.4-0.6c2-0.9,3.2-2.8,3.4-4.9c0-0.1,0-0.3,0-0.4V26h4.4c0.8,0,1.7,0.2,2.2,0.5c1.9,0.9,2.9,2.5,3.4,4.7
	c0.1,0.7,0.1,1.9,0.1,2.9v34.5c-1.9-0.7-3.8-1.1-5.7-1.3v-3.9H96c3.4,0,3.4-5.2,0-5.2h-2.7v-8.2c0-3.4-2.7-6.1-6.1-6.1H17
	c-3.4,0-6.3,2.5-6.3,6v45.3c0,3.5,2.9,5.9,6.3,5.9h47.5c0.2,0.7,0.5,1.5,0.8,2.2c0.5,1.2,1.1,2.4,1.7,3.4H11z M88.1,50.5v7.7h-3.5
	c-3.4,0-3.4,5.2,0,5.2h3.1v3.8c-2.2,0.2-4.5,0.7-6.6,1.5H68V49.1h19.3c0,0,0.1,0-0.1,0c0.2,0,0.2,0,0.2,0c0,0,0.1,0.1,0.2,0.1
	c-0.2-0.1,0.1,0.1,0.2,0.2c0,0,0,0.1,0.1,0.2c-0.1-0.1,0,0,0,0.2C88,49.7,88.1,50.4,88.1,50.5z M41.3,68.7V49.1h21.5v19.6H41.3z
	 M62.8,73.9v21.9H41.3V73.9H62.8z M16.4,95.8c-0.1-0.1-0.5-0.6-0.3-0.3C16,95.3,16,95.3,16,95.3c0,0,0,0,0-0.3c0,0.2,0,0.1,0,0.1
	V73.9h20v21.9H16.7C16.8,95.8,16.3,95.7,16.4,95.8z M16,68.7V49.7c0,0,0,0,0,0.1c0-0.1,0-0.2,0.1-0.3c-0.1,0.2-0.1,0.1,0.1-0.2
	c-0.2,0.1-0.1,0.1,0.1-0.1c0.3-0.3,0.2-0.2,0.8-0.2h19v19.6H16z M68,73.9h4.2c-0.2,0.2-0.5,0.4-0.7,0.7c-1.3,1.2-2.4,2.6-3.4,4.1
	V73.9z M111.5,93.5c-0.1,9.3-6.3,17.6-15.2,20.3c-9.1,2.7-19-1-24.1-8.8C67,97.1,67.9,86.5,74,79.5c3.1-3.6,7.1-5.8,11.7-6.8
	c2.2-0.5,4.7-0.6,7.2-0.3c1.8,0.2,4.6,1,6.3,1.8C106.8,77.8,111.5,85.3,111.5,93.5z"/>
</svg>
